<?xml version="1.0" encoding="utf-8"?>
<!-- Generator: Adobe Illustrator 19.0.0, SVG Export Plug-In . SVG Version: 6.00 Build 0)  -->
<svg version="1.1" id="Layer_1" xmlns="http://www.w3.org/2000/svg" xmlns:xlink="http://www.w3.org/1999/xlink" x="0px" y="0px"
	 viewBox="0 0 35 10.5" style="enable-background:new 0 0 35 10.5;" xml:space="preserve">
<style type="text/css">
	.st0{fill:#009EE2;}
	.st1{fill:#FFFFFF;}
	.st2{fill:#1D1D1B;}
	.st3{font-family:'MyriadPro-It';}
	.st4{font-size:2.0054px;}
</style>
<g>
	<path class="st0" d="M17.9,0h-5.2c-0.2,0-0.3,0.1-0.3,0.3v5.2c0,0.2,0.1,0.3,0.3,0.3h5.2c0.2,0,0.3-0.1,0.3-0.3V0.3
		C18.1,0.1,18,0,17.9,0L17.9,0z"/>
	<path class="st1" d="M17.7,3.4c-0.2-0.3-0.7-0.3-1-0.3c-1.2,0-2.3,0.2-3.3,0.6c0-0.3,0-0.6,0-0.9c0.8-0.2,2.1-0.4,3-0.3
		C17.3,2.6,17.6,3,17.7,3.4L17.7,3.4z"/>
	<path class="st1" d="M17.4,2.7c-0.2-0.2-0.4-0.4-1.1-0.5c-0.7-0.1-2.2,0.1-2.9,0.2c0-0.3-0.1-0.5-0.2-0.8c0.5-0.1,0.9-0.1,1.4-0.1
		c0.5,0,0.9,0,1.4,0.1C16.9,1.8,17.2,2.3,17.4,2.7L17.4,2.7z"/>
	<path class="st1" d="M12.7,0.5c2.4-0.1,3.8,1,4,1.3c-0.2-0.2-0.7-0.4-1.1-0.4c-0.5-0.1-1-0.1-1.5-0.1c-0.4,0-0.7,0-1.1,0.1
		C13,1,12.8,0.7,12.7,0.5L12.7,0.5z"/>
	<path class="st1" d="M17.4,5c0.4-0.8,0.3-0.9-0.5-0.9c-1.2,0.1-2.7,0.7-3.8,1.3c0.2-0.4,0.3-0.8,0.3-1.2c1.1-0.5,2.3-0.8,3.6-0.8
		C18.3,3.4,17.8,4.4,17.4,5L17.4,5z"/>
	<path class="st2" d="M7.6,3.4c0.2,0,0.4,0,0.7,0c0.3,0,0.6,0,0.7,0.2C9.1,3.6,9.2,3.8,9.2,4c0,0.3-0.2,0.4-0.4,0.5v0
		c0.1,0.1,0.7,0.9,0.7,0.9H8.9L8.3,4.6H8.1v0.8H7.6V3.4L7.6,3.4z M8.1,4.2h0.2c0.3,0,0.4-0.1,0.4-0.3c0-0.2-0.1-0.3-0.4-0.3
		c-0.1,0-0.2,0-0.2,0L8.1,4.2L8.1,4.2z M0.1,4.9C0.2,5,0.4,5,0.7,5C0.9,5,1,4.9,1,4.8c0-0.1-0.1-0.2-0.4-0.3C0.3,4.4,0,4.2,0,3.9
		c0-0.3,0.3-0.6,0.9-0.6c0.3,0,0.4,0,0.6,0.1L1.3,3.8c-0.1,0-0.3-0.1-0.5-0.1c-0.2,0-0.3,0.1-0.3,0.2C0.5,4,0.7,4.1,1,4.2
		c0.4,0.1,0.6,0.3,0.6,0.6c0,0.3-0.3,0.6-0.9,0.6C0.4,5.4,0.1,5.3,0,5.3L0.1,4.9L0.1,4.9z M3.1,4.5H2.2V5h0.9v0.4H1.7v-2h1.4v0.4
		H2.2v0.4h0.8V4.5L3.1,4.5z M5.2,5.3c-0.2,0-0.5,0.1-0.8,0.1c-0.4,0-0.7-0.1-0.9-0.3C3.3,4.9,3.2,4.7,3.2,4.4c0-0.7,0.5-1,1.3-1
		c0.3,0,0.5,0.1,0.6,0.1L5,3.8c-0.1,0-0.3-0.1-0.5-0.1c-0.4,0-0.7,0.2-0.7,0.6C3.8,4.8,4.1,5,4.5,5c0.1,0,0.2,0,0.3,0V4.6l0-0.4h0.5
		L5.2,5.3L5.2,5.3z M6,3.4v1.2C6,4.9,6.1,5,6.4,5c0.3,0,0.4-0.2,0.4-0.5V3.4h0.5v1.1c0,0.6-0.4,0.9-0.9,0.9c-0.6,0-0.9-0.3-0.9-0.9
		V3.4L6,3.4L6,3.4z M11.5,4.3c0,0.7-0.4,1.1-1.1,1.1c-0.7,0-1.1-0.4-1.1-1c0-0.6,0.4-1.1,1.1-1.1C11.1,3.3,11.5,3.8,11.5,4.3
		L11.5,4.3z M9.8,4.4C9.8,4.8,10,5,10.4,5c0.3,0,0.5-0.3,0.5-0.7c0-0.4-0.2-0.7-0.5-0.7C10,3.7,9.8,4,9.8,4.4L9.8,4.4z"/>
	<path class="st2" d="M1.8,0.6C1.6,0.4,1.3,0.4,1,0.4c-0.3,0-0.6,0-0.8,0v2.4h0.6c0,0,0-0.9,0-0.9l0,0c0.1,0,0.1,0,0.2,0
		c0.4,0,0.7-0.1,0.9-0.3C2,1.5,2.1,1.3,2.1,1.1C2.1,0.9,2,0.7,1.8,0.6L1.8,0.6z M0.9,1.6c-0.1,0-0.2,0-0.2,0l0,0V0.8l0,0
		c0,0,0.1,0,0.3,0c0.3,0,0.5,0.1,0.5,0.4C1.5,1.4,1.3,1.6,0.9,1.6L0.9,1.6z M3.5,0.4c-0.8,0-1.3,0.5-1.3,1.3c0,0.7,0.5,1.2,1.3,1.2
		c0.8,0,1.3-0.5,1.3-1.3C4.8,1,4.4,0.4,3.5,0.4L3.5,0.4z M3.5,2.4C3,2.4,2.8,2.1,2.8,1.6c0-0.5,0.3-0.9,0.7-0.9
		c0.4,0,0.7,0.3,0.7,0.8C4.1,2.1,3.9,2.4,3.5,2.4L3.5,2.4z M6.5,1.8L6.5,1.8L6.5,1.8L6.5,1.8c0.2-0.1,0.4-0.3,0.4-0.6
		c0-0.2-0.1-0.5-0.2-0.6C6.5,0.4,6.2,0.4,5.8,0.4c-0.3,0-0.6,0-0.8,0v2.4h0.6c0,0,0-1,0-1h0.3c0,0,0.7,0.9,0.7,1h0.6
		C7.1,2.6,6.6,1.9,6.5,1.8L6.5,1.8z M5.8,1.5H5.6V0.8l0,0c0.1,0,0.2,0,0.3,0c0.3,0,0.5,0.1,0.5,0.4C6.4,1.3,6.2,1.5,5.8,1.5L5.8,1.5
		z M9.1,0.4c0,0,0,0.4,0,0.4c0,0-0.7,0-0.7,0s0,1.9,0,2c0,0-0.5,0-0.6,0c0,0,0-2,0-2S7,0.8,7,0.8c0,0,0-0.4,0-0.4
		C7,0.4,9,0.4,9.1,0.4L9.1,0.4z M10.3,0.4C9.5,0.4,9,0.9,9,1.6c0,0.7,0.5,1.2,1.3,1.2c0.8,0,1.3-0.5,1.3-1.3
		C11.6,1,11.2,0.4,10.3,0.4L10.3,0.4z M10.3,2.4c-0.4,0-0.7-0.3-0.7-0.8c0-0.5,0.3-0.9,0.7-0.9c0.4,0,0.7,0.3,0.7,0.8
		C11,2.1,10.7,2.4,10.3,2.4L10.3,2.4z"/>
	<path class="st0" d="M17.7,7c0,0-5.2-0.1-8.6-0.1S0.5,7,0.5,7c0,0,5.3,0.1,8.6,0.1S17.7,7,17.7,7L17.7,7z"/>
	<g>
		<path d="M21.2,1.2c0.1,0,0.3,0,0.5,0c0.2,0,0.3,0,0.5,0.1c0.1,0.1,0.2,0.2,0.2,0.4c0,0.2-0.1,0.4-0.2,0.5
			c-0.1,0.1-0.3,0.2-0.6,0.2c-0.1,0-0.1,0-0.2,0l-0.1,0.6h-0.4L21.2,1.2z M21.4,2c0,0,0.1,0,0.1,0c0.2,0,0.4-0.1,0.4-0.3
			c0-0.2-0.1-0.2-0.3-0.2c-0.1,0-0.1,0-0.2,0L21.4,2z"/>
		<path d="M22.3,2.9l0.1-0.7c0-0.2,0.1-0.4,0.1-0.5h0.3c0,0.1,0,0.2,0,0.3h0c0.1-0.2,0.2-0.3,0.4-0.3c0,0,0,0,0.1,0L23.2,2
			c0,0,0,0-0.1,0c-0.2,0-0.3,0.2-0.4,0.5l-0.1,0.5H22.3z"/>
		<path d="M24.3,2.8c-0.1,0.1-0.3,0.1-0.5,0.1c-0.4,0-0.5-0.2-0.5-0.5c0-0.4,0.3-0.8,0.7-0.8c0.3,0,0.4,0.1,0.4,0.4
			c0,0.3-0.3,0.4-0.8,0.4c0,0,0,0.1,0,0.1c0,0.1,0.1,0.1,0.2,0.1c0.1,0,0.3,0,0.4-0.1L24.3,2.8z M24,1.9c-0.2,0-0.3,0.1-0.3,0.3
			c0.3,0,0.4,0,0.4-0.2C24.1,1.9,24.1,1.9,24,1.9z"/>
		<path d="M25,1.6L25,2.2c0,0.2,0,0.2,0,0.3h0c0-0.1,0.1-0.2,0.1-0.3l0.3-0.6h0.4l-0.7,1.3h-0.4l-0.2-1.3H25z"/>
		<path d="M25.8,2.9l0.2-1.3h0.4l-0.2,1.3H25.8z M26.3,1.5c-0.1,0-0.2-0.1-0.2-0.2c0-0.1,0.1-0.2,0.2-0.2c0.1,0,0.2,0.1,0.2,0.2
			C26.5,1.4,26.4,1.5,26.3,1.5L26.3,1.5z"/>
		<path d="M28,1.1l-0.3,1.3c0,0.2-0.1,0.3-0.1,0.5h-0.3l0-0.2h0c-0.1,0.2-0.3,0.2-0.4,0.2c-0.2,0-0.4-0.2-0.4-0.5
			c0-0.4,0.3-0.8,0.8-0.8c0.1,0,0.1,0,0.2,0l0.1-0.6H28z M27.5,1.9c0,0-0.1,0-0.1,0c-0.2,0-0.4,0.3-0.4,0.5c0,0.2,0.1,0.2,0.2,0.2
			c0.1,0,0.2-0.1,0.3-0.4L27.5,1.9z"/>
		<path d="M29,2.8c-0.1,0.1-0.3,0.1-0.5,0.1c-0.4,0-0.5-0.2-0.5-0.5c0-0.4,0.3-0.8,0.7-0.8c0.3,0,0.4,0.1,0.4,0.4
			c0,0.3-0.3,0.4-0.8,0.4c0,0,0,0.1,0,0.1c0,0.1,0.1,0.1,0.2,0.1c0.1,0,0.3,0,0.4-0.1L29,2.8z M28.9,1.1l0.2,0.4h-0.2l-0.1-0.2h0
			l-0.1,0.2h-0.3l0.3-0.4H28.9z M28.7,1.9c-0.2,0-0.3,0.1-0.3,0.3c0.3,0,0.4,0,0.4-0.2C28.8,1.9,28.8,1.9,28.7,1.9z"/>
		<path d="M29.2,2.9L29.4,2c0-0.2,0.1-0.3,0.1-0.4h0.3l0,0.2h0c0.1-0.2,0.3-0.2,0.4-0.2c0.2,0,0.3,0.1,0.3,0.3c0,0.1,0,0.1,0,0.2
			l-0.1,0.7H30l0.1-0.7c0,0,0-0.1,0-0.1c0-0.1,0-0.2-0.1-0.2c-0.1,0-0.3,0.2-0.3,0.4l-0.1,0.6H29.2z"/>
		<path d="M31.6,2.8c-0.1,0-0.2,0.1-0.4,0.1c-0.3,0-0.5-0.2-0.5-0.5c0-0.4,0.3-0.8,0.8-0.8c0.1,0,0.2,0,0.3,0l-0.1,0.3
			c0,0-0.1,0-0.2,0c-0.3,0-0.4,0.2-0.4,0.5c0,0.2,0.1,0.3,0.2,0.3c0.1,0,0.2,0,0.2-0.1L31.6,2.8z"/>
		<path d="M31.8,2.9l0.2-1.3h0.4l-0.2,1.3H31.8z M32.3,1.5c-0.1,0-0.2-0.1-0.2-0.2c0-0.1,0.1-0.2,0.2-0.2c0.1,0,0.2,0.1,0.2,0.2
			C32.5,1.4,32.4,1.5,32.3,1.5L32.3,1.5z"/>
		<path d="M33.3,2.9c0-0.1,0-0.2,0-0.2h0c-0.1,0.2-0.3,0.3-0.4,0.3c-0.2,0-0.4-0.2-0.4-0.4c0-0.4,0.3-0.9,0.9-0.9
			c0.2,0,0.3,0,0.4,0.1l-0.1,0.7c0,0.2-0.1,0.4-0.1,0.6H33.3z M33.4,1.9c0,0-0.1,0-0.1,0c-0.2,0-0.4,0.3-0.4,0.5
			c0,0.1,0,0.2,0.2,0.2c0.1,0,0.2-0.1,0.3-0.4L33.4,1.9z"/>
		<path d="M21.6,3.6l-0.3,1.7h-0.4l0.3-1.7H21.6z"/>
		<path d="M21.6,5.3l0.2-0.8c0-0.2,0.1-0.3,0.1-0.4h0.3l0,0.2h0C22.2,4.1,22.4,4,22.5,4c0.2,0,0.3,0.1,0.3,0.3c0,0.1,0,0.1,0,0.2
			l-0.1,0.7h-0.4l0.1-0.7c0,0,0-0.1,0-0.1c0-0.1,0-0.2-0.1-0.2c-0.1,0-0.3,0.2-0.3,0.4l-0.1,0.6H21.6z"/>
		<path d="M23.1,5.3l0.2-1h-0.2L23.1,4h0.2l0-0.1c0-0.1,0.1-0.3,0.2-0.4c0.1-0.1,0.2-0.1,0.4-0.1c0.1,0,0.2,0,0.2,0L24,3.8
			c0,0-0.1,0-0.1,0c-0.1,0-0.2,0.1-0.2,0.2l0,0.1h0.2l-0.1,0.3h-0.2l-0.2,1H23.1z"/>
		<path d="M24.7,5.3c0-0.1,0-0.2,0-0.2h0c-0.1,0.2-0.3,0.3-0.4,0.3c-0.2,0-0.4-0.2-0.4-0.4c0-0.4,0.3-0.9,0.9-0.9
			c0.2,0,0.3,0,0.4,0.1l-0.1,0.7C25,4.9,25,5.1,25,5.3H24.7z M24.8,4.3c0,0-0.1,0-0.1,0c-0.2,0-0.4,0.3-0.4,0.5c0,0.1,0,0.2,0.2,0.2
			c0.1,0,0.2-0.1,0.3-0.4L24.8,4.3z"/>
		<path d="M25.3,5.3l0.2-0.8c0-0.2,0.1-0.3,0.1-0.4h0.3l0,0.2h0C25.9,4.1,26.1,4,26.3,4c0.2,0,0.3,0.1,0.3,0.3c0,0.1,0,0.1,0,0.2
			l-0.1,0.7H26l0.1-0.7c0,0,0-0.1,0-0.1c0-0.1,0-0.2-0.1-0.2c-0.1,0-0.3,0.2-0.3,0.4l-0.1,0.6H25.3z"/>
		<path d="M27.4,3.7L27.4,4h0.3l-0.1,0.3h-0.3l-0.1,0.4c0,0,0,0.1,0,0.2c0,0.1,0,0.1,0.1,0.1c0,0,0.1,0,0.1,0l0,0.3c0,0-0.1,0-0.2,0
			c-0.2,0-0.3-0.1-0.3-0.3c0-0.1,0-0.1,0-0.2L27,4.3h-0.2L26.8,4H27l0-0.2L27.4,3.7z"/>
		<path d="M27.6,5.3L27.9,4h0.4L28,5.3H27.6z M28.1,3.9c-0.1,0-0.2-0.1-0.2-0.2c0-0.1,0.1-0.2,0.2-0.2c0.1,0,0.2,0.1,0.2,0.2
			C28.3,3.8,28.2,3.9,28.1,3.9L28.1,3.9z"/>
		<path d="M28.3,5.3l0.3-1.8H29l-0.3,1.8H28.3z"/>
	</g>
	<text transform="matrix(1 0 0 1 2.5975 9.1571)" class="st3 st4">PREVIDÊNCIA</text>
</g>
</svg>
